<?xml version="1.0" standalone="no"?>
<!DOCTYPE svg PUBLIC "-//W3C//DTD SVG 1.1//EN" "http://www.w3.org/Graphics/SVG/1.1/DTD/svg11.dtd" >
<svg xmlns="http://www.w3.org/2000/svg" xmlns:xlink="http://www.w3.org/1999/xlink" version="1.1">
<metadata></metadata>
<defs>
<font id="lintsecregular" horiz-adv-x="645" >
<font-face units-per-em="2048" ascent="1654" descent="-394" />
<missing-glyph horiz-adv-x="787" />
<glyph unicode="&#xd;" horiz-adv-x="787" />
<glyph unicode=" "  horiz-adv-x="787" />
<glyph unicode="&#x09;" horiz-adv-x="787" />
<glyph unicode="&#xa0;" horiz-adv-x="787" />
<glyph unicode="!" d="M624 1579l-208 -908h-170l-180 908h558zM591 252q0 -109 -75.5 -184.5t-184.5 -75.5t-184.5 75.5t-75.5 184.5t75.5 184.5t184.5 75.5t184.5 -75.5t75.5 -184.5z" />
<glyph unicode="&#x22;" horiz-adv-x="1238" d="M591 1292q0 -60 -20 -124.5t-57 -99.5q-9 -9 -137 -115q-104 -87 -207 -172q-54 -44 -107 -88q54 87 79 137q80 154 80 224q-58 41 -101 102q-50 72 -50 136q0 109 75.5 184.5t184.5 75.5t184.5 -75.5t75.5 -184.5zM1177 1292q0 -60 -20 -124.5t-57 -99.5 q-9 -9 -137 -115q-104 -87 -207 -172q-54 -44 -107 -88q54 87 79 137q80 154 80 224q-58 41 -101 102q-50 72 -50 136q0 109 75.5 184.5t184.5 75.5t184.5 -75.5t75.5 -184.5z" />
<glyph unicode="'" d="M591 1292q0 -60 -20 -124.5t-57 -99.5q-9 -9 -137 -115q-104 -87 -207 -172q-54 -44 -107 -88q54 87 79 137q80 154 80 224q-58 41 -101 102q-50 72 -50 136q0 109 75.5 184.5t184.5 75.5t184.5 -75.5t75.5 -184.5z" />
<glyph unicode="(" horiz-adv-x="983" d="M846 0q-314 0 -532 219q-225 225 -226 561q0 325 213 558t509 233q25 0 43 -32.5t18 -73.5q0 -33 -15.5 -55t-47.5 -22q-120 -32 -162 -184q-28 -102 -28 -306v-110v-125q0 -291 59 -403q55 -102 169 -128q19 0 28.5 -18t9.5 -43q0 -28 -10.5 -49.5t-27.5 -21.5z" />
<glyph unicode=")" horiz-adv-x="850" d="M803 780q0 -334 -221 -555.5t-535 -221.5q-39 0 -39 58q0 27 10 49t28 22q145 33 195 194q33 106 33 337v125q0 162 -6 236q-11 137 -49 221q-47 106 -139 143q-20 0 -33.5 30t-13.5 71q0 36 12 59.5t37 22.5q296 0 508.5 -233t212.5 -558z" />
<glyph unicode="," d="M71 252q0 109 75.5 184.5t184.5 75.5t184.5 -75.5t75.5 -184.5q0 -60 -20 -124.5t-57 -99.5q-9 -9 -137 -115q-104 -85 -207 -171q-54 -44 -107 -89q54 87 79 137q80 154 80 224q-58 41 -101 103q-50 72 -50 135z" />
<glyph unicode="-" horiz-adv-x="983" d="M85 1002h813v-227h-813v227z" />
<glyph unicode="." d="M71 252q0 109 75.5 184.5t184.5 75.5t184.5 -75.5t75.5 -184.5t-75.5 -184.5t-184.5 -75.5t-184.5 75.5t-75.5 184.5z" />
<glyph unicode="0" horiz-adv-x="1644" d="M1550 774q0 -337 -189.5 -560t-457.5 -223q-16 0 -25.5 17t-9.5 41q0 30 8.5 51t24.5 21q124 32 167 194q28 107 28 339v127q0 172 -4 238q-9 137 -43 224q-41 106 -118 143q-17 0 -28 32.5t-11 70.5q0 36 10 59.5t31 22.5q252 0 434.5 -235.5t182.5 -561.5zM720 -13 q-269 0 -457 221q-192 227 -192 566q0 325 182.5 561t436.5 236q22 0 37 -33.5t15 -73.5q0 -35 -12.5 -56.5t-41.5 -21.5q-104 -33 -140 -189q-24 -101 -23 -310v-106v-121q0 -238 26 -342q43 -164 169 -197q16 0 24.5 -18t8.5 -45q0 -30 -8.5 -50.5t-24.5 -20.5z" />
<glyph unicode="1" horiz-adv-x="1137" d="M1043 110l1 -110l-984 -3v113q0 54 121 90t121 102l-1 780l-214 2l-2 178q121 20 227 101q77 69 156.5 139t149.5 70h72t90 2h25l2 -1249q0 -102 118 -131t118 -84z" />
<glyph unicode="2" horiz-adv-x="1562" d="M679 509h-336q52 106 218 192q247 129 265 143q129 98 129 252q0 126 -14 174q-27 88 -125 157q-28 9 -28 55q0 38 20.5 65.5t59.5 27.5q233 0 400 -116q192 -134 192 -363q0 -205 -140 -311q-85 -65 -316.5 -136.5t-324.5 -139.5zM589 1134q0 -102 -75.5 -170 t-184.5 -68q-117 0 -190 90q-68 82 -68 196q0 153 133 268.5t311 115.5q30 3 44 -12.5t14 -41.5q0 -28 -15.5 -54t-34.5 -26q-41 -17 -56.5 -32t-15.5 -33q0 -20 69 -92.5t69 -140.5zM1490 531l-132 -534l-1200 5q2 38 4 63q22 150 103 280l858 -2q35 0 111 123q36 60 86 60 z" />
<glyph unicode="3" horiz-adv-x="1518" d="M854 6q-27 0 -43.5 27.5t-16.5 64.5q0 65 41 71q68 0 101 93q27 76 27 192q0 117 -38 175q-50 77 -180 93q-30 -3 -56 24.5t-26 63.5q0 27 20.5 49t64.5 30q104 0 156 92q39 71 40 172v51q0 98 -21 143q-32 69 -120 69q-20 -2 -30.5 15.5t-10.5 47.5q0 36 15 64.5 t41 28.5q225 0 384 -96q187 -113 187 -317q-11 -120 -67 -196q-68 -90 -196 -115q151 -24 240 -142q83 -112 83 -259q0 -181 -150.5 -314t-357.5 -133h-43q-30 4 -44 6zM545 1427q-43 0 -74 -19q-22 -13 -41 -37q49 -47 68 -81q25 -43 25 -99q0 -88 -64.5 -145t-156.5 -57 q-93 0 -161.5 68t-75.5 159q-2 11 -2 35q0 128 119 228.5t269 100.5q47 0 89 -11q20 -2 31.5 -21.5t11.5 -46.5q0 -60 -38 -74zM578 175q33 -14 33 -79q0 -36 -13.5 -66t-35.5 -30q-195 0 -330 77q-161 91 -161 263q0 102 86 185t190 83q88 0 144.5 -64.5t56.5 -152.5 q0 -69 -20 -104q-27 -44 -84 -70q17 -16 69 -26t65 -16z" />
<glyph unicode="4" horiz-adv-x="1699" d="M1623 137v-139l-996 4l2 137q0 57 121 74t121 72v1005q0 69 104 185q35 38 106 102h274v-227v-324v-366l238 -1v-205h-128h-109l-4 -194q0 -52 135.5 -58.5t135.5 -64.5zM580 865l-183 -177h13q17 0 34 2q60 0 93 -9q52 -16 52 -51l5 -161l-503 2l4 178l485 547v-331z " />
<glyph unicode="5" horiz-adv-x="1495" d="M744 1197q-172 0 -297 49l-3 -413q0 -25 -28 -39t-65 -14q-35 0 -57.5 11.5t-22.5 35.5v737q69 -19 199 -32t274 -13q145 0 256 11.5t213 44.5q0 -139 -144 -258.5t-325 -119.5zM1426 561q0 -254 -196 -411q-183 -148 -447 -148q-22 0 -35.5 29t-13.5 67q0 30 8.5 49.5 t26.5 19.5q101 16 142 139q30 90 30 242q0 151 -45 227q-36 63 -102 71q-14 3 -45 -10.5t-45 -13.5q-19 0 -31 15q-14 43 -14 104q0 44 6 74q58 20 120.5 30.5t134.5 10.5q200 0 350 -138q156 -143 156 -357zM444 236q22 -36 35 -47q22 -19 63 -19q17 -3 31.5 -33.5 t14.5 -65.5q0 -25 -10.5 -41t-35.5 -16q-33 -5 -66 -5q-170 0 -287 98q-121 102 -121 258q0 110 82 195.5t184 85.5q91 0 164.5 -69.5t73.5 -154.5q0 -66 -41 -113q-16 -18 -87 -73z" />
<glyph unicode="6" horiz-adv-x="1556" d="M1484 1246q0 -98 -64.5 -165.5t-159.5 -67.5q-87 0 -146.5 53.5t-59.5 140.5q0 61 10 93.5t51 65.5q-27 28 -44 36t-44 8h-27q-33 0 -56 6q-16 0 -28.5 27t-12.5 60q0 30 12.5 50.5t39.5 20.5q208 0 349 -68q180 -87 180 -260zM942 6q-25 0 -38.5 21.5t-13.5 49.5 q0 32 11 56.5t32 30.5q65 32 86 109q14 50 14 156v32v23q0 117 -70 178q-55 47 -197 93q-27 5 -27 50q0 30 15.5 57.5t47.5 40.5q93 22 175 22q219 0 366 -130t147 -329q0 -162 -147 -315.5t-322 -153.5q-41 0 -79 9zM703 1410q-85 0 -128 -236q-32 -175 -31 -405 q0 -202 3.5 -278.5t37.5 -167.5t113 -148q17 -9 26.5 -33.5t9.5 -53.5q0 -38 -13.5 -62t-35.5 -18q-260 0 -437 228.5t-177 538.5q0 320 151 540q172 250 470 251q24 0 44 -33t20 -66q0 -25 -12.5 -41t-40.5 -16z" />
<glyph unicode="7" horiz-adv-x="1356" d="M1117 1257h-734q-50 0 -118 -85q-22 -28 -59 -87q-22 -20 -42.5 -29.5t-42.5 -9.5q-28 0 -44.5 15t-16.5 42q0 6 3 19l104 450l1117 2zM1024 1057q-65 -118 -98 -307q-27 -164 -53 -326q-41 -194 -120 -325q-33 -52 -82 -76.5t-112 -24.5q-39 0 -82 10q-71 14 -121 63 q-57 54 -57 124q0 148 78 309q65 132 190 292q82 102 233 263z" />
<glyph unicode="8" horiz-adv-x="1575" d="M1486 473q0 -235 -189 -363q-162 -110 -399 -110q-24 0 -39 30t-15 65q0 52 27 59q68 52 102 128t34 165q0 98 -8 137q-14 72 -63 106q-66 44 -66 115q0 32 17 61.5t57.5 55t54.5 67t14 101.5q0 14 -1.5 46.5t-1.5 48.5q0 83 -19 147t-63 92q-22 3 -34 23.5t-12 49.5 q0 28 11 49.5t33 25.5q202 0 364.5 -118t162.5 -274q0 -148 -57.5 -231.5t-177.5 -127.5q115 -49 183 -126q85 -96 85 -222zM685 154q27 -8 27 -59q0 -38 -14 -66.5t-39 -28.5q-235 0 -397 109q-191 128 -191 364q0 126 83 220q69 79 185 128q-118 44 -174 123 q-61 87 -61 236q0 154 163 273t363 119q14 -3 25 -17q19 -24 19 -58q0 -28 -11.5 -49t-33.5 -24q-41 -27 -61.5 -94t-20.5 -145q0 -16 -1.5 -48.5t-1.5 -47.5q0 -61 13 -101t53.5 -65t58.5 -55t18 -63q0 -71 -66 -115q-46 -32 -62 -106q-9 -46 -9 -137t33 -165t102 -128z " />
<glyph unicode="9" horiz-adv-x="1587" d="M110 332q0 98 64.5 166t159.5 68q87 0 146.5 -54t59.5 -140q0 -61 -8 -87q-13 -39 -53 -72q27 -28 44 -36t44 -8h27q33 0 57 -7q16 0 28.5 -26.5t12.5 -59.5q0 -30 -13 -50.5t-39 -20.5q-208 0 -350 67q-180 87 -180 260zM652 1572q25 0 38.5 -21t13.5 -50q0 -32 -11 -56 t-31 -30q-65 -32 -87 -109q-14 -50 -14 -156v-32.5v-22.5q0 -117 71 -178q55 -47 197 -93q27 -5 26 -50q0 -30 -15.5 -58t-47.5 -40q-93 -22 -174 -22q-219 0 -366.5 130t-147.5 328q0 162 147.5 316t321.5 154q41 -1 79 -10zM892 169q85 0 127 236q32 175 32 405v86 q0 247 -38 349t-117 159q-17 9 -26.5 33.5t-9.5 52.5q0 38 13.5 62.5t35.5 18.5q260 0 440 -232q175 -225 174 -536q0 -320 -151 -540q-172 -250 -469 -250q-24 0 -44.5 33t-20.5 66q0 25 13 41t41 16z" />
<glyph unicode=":" d="M71 252q0 109 75.5 184.5t184.5 75.5t184.5 -75.5t75.5 -184.5t-75.5 -184.5t-184.5 -75.5t-184.5 75.5t-75.5 184.5zM71 1216q0 109 75.5 184.5t184.5 75.5t184.5 -75.5t75.5 -184.5t-75.5 -184.5t-184.5 -75.5t-184.5 75.5t-75.5 184.5z" />
<glyph unicode=";" d="M591 1216q0 -109 -75.5 -184.5t-184.5 -75.5t-184.5 75.5t-75.5 184.5t75.5 184.5t184.5 75.5t184.5 -75.5t75.5 -184.5zM591 252q0 -60 -20 -124.5t-57 -99.5q-9 -9 -137 -115q-104 -85 -207 -171q-54 -44 -107 -89q54 87 79 137q80 154 80 224q-58 41 -101 103 q-50 72 -50 135q0 109 75.5 184.5t184.5 75.5t184.5 -75.5t75.5 -184.5z" />
<glyph unicode="?" horiz-adv-x="1518" d="M1389 1159q-8 -87 -93.5 -163t-169.5 -148q-17 -17 -127 -81q-74 -43 -81 -97t-53 -78.5t-107 -24.5q-66 0 -115 28.5t-49 78.5q0 85 31 136q38 60 126.5 79.5t143.5 101.5q49 74 49 162v51q0 98 -21 143q-32 69 -120 69q-20 -2 -30.5 15.5t-10.5 47.5q0 36 15 64.5 t41 28.5q225 0 384 -96q187 -114 187 -317zM545 1427q-43 0 -74 -19q-22 -13 -41 -37q49 -47 68 -81q25 -43 25 -99q0 -88 -64.5 -145t-156.5 -57q-93 0 -161.5 68t-75.5 159q-2 11 -2 35q0 128 119 228.5t269 100.5q47 0 89 -11q20 -2 31.5 -21.5t11.5 -46.5q0 -60 -38 -74 zM958 224q0 -91 -64.5 -156t-156.5 -65q-91 0 -155.5 64.5t-64.5 156.5q0 91 64.5 155.5t155.5 64.5t156 -64.5t65 -155.5z" />
<glyph unicode="A" horiz-adv-x="2046" d="M1909 129l29 -129l-947 2l16 122q5 39 94.5 55t89.5 49q0 13 -6 27q-9 54 -18 82q-25 88 -63 112q-19 2 -87.5 3.5t-69.5 1.5h-67t-47 -2q-20 0 -31 21.5t-11 51.5q0 28 10 48.5t31 20.5l242 -3l-324 699l107 284l386 1l499 -1304q16 -39 62 -61q97 -46 105 -81zM736 887 l-215 -550q-8 -19 -11 -36t-3 -30q0 -57 94 -79t94 -66l8 -129l-616 5l-2 99q0 58 85 97q99 46 121 100l345 825q19 -13 40 -23q65 -101 64 -186q1 -18 -4 -27z" />
<glyph unicode="B" horiz-adv-x="2104" d="M1556 2l-475 -5q-32 0 -47 19t-15 49q0 36 20 70t43 34q143 0 244 74q118 87 119 236q0 126 -126 191q-106 54 -263 53q-22 0 -36.5 25.5t-14.5 56.5q0 32 13.5 54.5t37.5 22.5q165 20 247 76q102 69 102 205q0 129 -99 187q-88 52 -258 52q-27 -2 -42 25t-15 66 q0 35 13.5 59.5t39.5 24.5l440 -2q183 0 312 -86q148 -99 148 -270q0 -135 -98 -239q-80 -85 -215 -143q137 -14 248 -118.5t128 -238.5q0 -194 -123 -332q-130 -146 -328 -146zM833 -3h-715v148q0 44 96 61.5t96 61.5l-1 1008q0 76 -95.5 91.5t-95.5 59.5l2 145h709z" />
<glyph unicode="C" horiz-adv-x="1701" d="M1612 1008q0 -27 -23 -41.5t-53 -14.5q-60 0 -74 39q-14 55 -24 85q-28 88 -56 135q-44 77 -135 131t-182 65q-24 0 -37 23.5t-13 58.5q0 36 13 61t37 25q106 0 197 -28q123 -38 146 -41q20 36 62 56t85 20q55 0 55 -37zM1504 165q-69 -80 -129 -115q-79 -46 -192 -45 q-39 0 -99 8q-17 -2 -27.5 22.5t-10.5 59.5t10.5 63t27.5 29q93 9 152 40t111 99q36 47 58 143q6 32 14 87q6 22 45.5 37t87.5 15q35 0 58.5 -10t23.5 -31q0 -8 -2 -12q-19 -102 -33 -160q-45 -172 -95 -230zM859 11q-60 -9 -114 -9q-302 0 -493 255q-175 233 -175 546 q0 296 222 530q228 239 533 239q20 0 32 -26.5t12 -61.5q0 -36 -12 -63t-32 -28q-137 -41 -181 -237q-24 -106 -24 -337q0 -172 9 -263q16 -156 62 -249q55 -113 156 -127q22 2 34.5 -23.5t12.5 -60.5q0 -36 -11 -60.5t-31 -24.5z" />
<glyph unicode="D" horiz-adv-x="2052" d="M1081 -3q-17 0 -27.5 25t-10.5 58q0 30 8.5 50.5t24.5 20.5q147 27 224 137q65 91 85 248q13 95 12 290q0 262 -48 367q-69 148 -281 184q-19 -2 -30 25t-11 63q0 44 11 73.5t33 29.5q350 0 605 -182q284 -202 284 -535q0 -391 -178 -601q-216 -253 -701 -253zM833 -3 l-710 5l1 133q0 30 81.5 50.5t81.5 74.5l1 1079q0 43 -85 55.5t-85 46.5l-1 134l716 2v-1580z" />
<glyph unicode="E" horiz-adv-x="1817" d="M1356 548l-100 -3q-49 0 -65 86t-72 86h-90q-20 -2 -30.5 20t-10.5 60q0 43 11.5 76.5t29.5 33.5h93q49 0 56.5 94.5t64.5 94.5h113v-548zM1728 -2h-655l-5 161q0 46 30 60t88 14q19 0 39.5 -0.5t42.5 -0.5q46 0 81.5 7t62.5 29q58 49 72 218t98 169h145zM1728 1577 l-1 -632h-145q-82 0 -94.5 155.5t-75.5 207.5q-25 22 -61 29t-86 7q-20 0 -40.5 -1t-39.5 -1q-61 0 -84 11q-33 16 -33 63l5 161h655zM819 1577l-1 -1579l-712 2l3 98q0 46 82.5 74t82.5 69v1095q0 38 -84 57t-84 82l3 102h710z" />
<glyph unicode="F" horiz-adv-x="1788" d="M1356 548l-100 -3q-49 0 -65 86t-72 86h-90q-20 -2 -31.5 24t-11.5 64q0 41 11 69.5t32 32.5h93q49 0 56.5 94.5t64.5 94.5h113v-548zM1728 1577l-1 -632h-145q-82 0 -94.5 155.5t-75.5 207.5q-25 22 -61 29t-86 7q-20 0 -40.5 -1t-39.5 -1q-61 0 -84 11q-33 16 -33 63 l5 161h655zM832 1577v-1312q0 -57 132 -74.5t132 -89.5l-1 -103l-977 2q-8 9 -11 21t-3 25q0 27 11 56l6 15q0 50 80.5 69t80.5 55l3 1095q0 36 -83.5 55t-83.5 84l3 102h711z" />
<glyph unicode="G" horiz-adv-x="1890" d="M1613 985h-83q-74 0 -90 64q-11 60 -22 122q-46 115 -155 173q-77 41 -217 63q-22 0 -32 19t-10 52q0 38 12.5 67t31.5 27q132 0 214 -10t159 -50q16 -8 25 11q27 50 55 51l109 -2zM1809 766l-4 -90q0 -65 -104 -96q-50 -16 -50 -52l-2 -517q-14 -2 -29 -2.5t-23 -0.5 q-60 0 -100.5 21t-69.5 72q-61 -61 -135 -88q-61 -22 -134 -22q-35 0 -65 3.5t-58 10t-38.5 28.5t-10.5 52q0 33 11 59t29 26q72 0 110 14q69 25 69 96l-3 265q0 28 -67 45.5t-67 71.5l3 105zM835 8q-43 -5 -82 -5q-280 0 -479 246q-187 233 -187 532q0 307 216.5 550 t509.5 243l-2 -170q-88 -14 -137 -120q-38 -83 -49.5 -208.5t-11.5 -268.5q0 -307 66 -471q55 -137 159 -177q16 -6 25.5 -30.5t9.5 -52.5t-10.5 -48t-27.5 -20z" />
<glyph unicode="H" horiz-adv-x="2259" d="M2201 1575l-2 -127q0 -49 -97 -54t-97 -99v-1038q0 -43 91.5 -66.5t91.5 -83.5l3 -109h-904l2 115q0 63 93 79t93 57v471l-189 -3q-17 -2 -27.5 22.5t-10.5 60.5t10 63t28 27l201 -5l-1 408q0 80 -82 93t-82 59l-3 130h882zM1051 717l-189 3v-471q0 -41 93 -57t93 -79 l1 -115h-904l3 109q0 58 91.5 82t91.5 68v1038q0 95 -97 99.5t-97 53.5l-2 127h883l-3 -130q0 -46 -82 -58.5t-82 -93.5l-2 -408l202 5q22 2 33.5 -19.5t11.5 -57.5q0 -38 -13 -68t-32 -28z" />
<glyph unicode="I" horiz-adv-x="1046" d="M762 249q0 -43 98 -58.5t98 -77.5l1 -115h-904l3 109q0 58 91.5 82t91.5 68v1038q0 95 -97 99.5t-97 53.5l-1 127h910l-3 -130q0 -43 -96 -55.5t-96 -105.5z" />
<glyph unicode="J" horiz-adv-x="1849" d="M1747 1449q0 -38 -86 -60t-86 -59v-597q0 -180 -28 -303t-97.5 -220t-184.5 -156t-238 -59v1311q0 46 -99 68t-99 83l-2 118l922 -3zM769 3q-43 -6 -98 -6q-227 0 -397 102q-191 115 -191 303q0 131 92.5 226t221.5 95q91 0 175 -74q90 -80 90 -180q0 -17 -2 -25 q-9 -58 -37 -103t-75 -78q28 -35 77 -55.5t104 -20.5q14 0 40 4q24 -5 38 -36t14 -68q0 -38 -12.5 -61t-39.5 -23z" />
<glyph unicode="K" horiz-adv-x="2301" d="M2177 120v-120l-846 -2l2 128q0 27 53.5 49t53.5 39q0 6 -5 16l-329 583l364 480q20 27 20 48q0 27 -78.5 52t-78.5 63l1 119l653 -1l-2 -103q0 -63 -72.5 -74t-100.5 -45l-274 -330l494 -778q28 -44 93 -66q52 -17 52 -58zM852 249q0 -43 98 -58.5t98 -77.5l1 -115h-904 l3 109q0 58 91.5 82t91.5 68v1038q0 95 -97 99.5t-97 53.5l-2 127h906l-3 -130q0 -46 -93.5 -58.5t-93.5 -93.5z" />
<glyph unicode="L" horiz-adv-x="1814" d="M1727 0h-643v123q0 71 132.5 76.5t174.5 36.5q99 74 150 244q16 57 30 158q14 30 39 44t54 14q27 0 45 -11t18 -31v-654zM799 -2h-706l3 109q0 58 91.5 82t91.5 68v1038q0 95 -97 99.5t-97 53.5l-2 127h911l-3 -130q0 -43 -96 -55.5t-96 -105.5v-1286z" />
<glyph unicode="M" horiz-adv-x="2522" d="M2426 118l-1 -118h-859v124q0 43 78.5 79t78.5 79v1293h708l1 -121q0 -43 -100 -76t-100 -83v-1021q0 -46 97 -70.5t97 -85.5zM1449 972l-297 -940q-5 -14 -21.5 -24.5t-35.5 -10.5q-33 0 -46 27l-591 1266q-22 47 -200 88q-74 17 -74 57l3 140l695 -3l320 -690l246 693z M627 101v-101h-551v107q0 38 91 64.5t91 82.5v861l180 -319v-530q0 -49 94.5 -83.5t94.5 -81.5z" />
<glyph unicode="N" horiz-adv-x="1994" d="M1878 1457q0 -46 -101 -71t-101 -74v-475l-195 248v230q0 39 -112 92q-54 25 -54 68l-3 97h563zM1678 518v-518h-243l-1092 1382q-17 22 -80 34.5t-63 56.5v102h662zM616 101v-101h-551v107q0 38 91 64.5t91 82.5v899l180 -320v-567q0 -49 94.5 -83.5t94.5 -81.5z" />
<glyph unicode="O" horiz-adv-x="1887" d="M1815 780q0 -334 -221.5 -555.5t-534.5 -221.5q-39 0 -40 58q0 27 10.5 49t27.5 22q145 33 195 194q33 106 34 337v125q0 162 -7 236q-11 137 -49 221q-47 106 -138 143q-20 0 -34 30t-14 71q0 36 12 59.5t37 22.5q296 0 509 -233t213 -558zM846 132q19 0 28.5 -18 t9.5 -43q0 -28 -10.5 -49.5t-27.5 -21.5q-314 0 -532 219q-225 225 -226 561q0 325 213 558t509 233q25 0 43 -32.5t18 -73.5q0 -33 -15.5 -55t-47.5 -22q-120 -32 -162 -184q-28 -102 -28 -306v-110v-125q0 -291 59 -403q56 -103 169 -128z" />
<glyph unicode="P" horiz-adv-x="2003" d="M1930 1109q0 -184 -142.5 -305.5t-339.5 -121.5q-91 -2 -177 -2.5t-204 -2.5q-25 0 -38.5 20t-13.5 51q0 35 14 62.5t38 27.5q158 14 239.5 93t81.5 210t-73 201q-82 79 -248 79q-24 -2 -39 24t-15 61q0 66 43 66l378 3q194 0 340 -127q156 -136 156 -339zM818 1577 v-1312q0 -57 132 -74.5t132 -89.5l-1 -103l-977 2q-8 9 -11 21t-3 25q0 27 11 56l6 15q0 50 80.5 69t80.5 55l3 1095q0 36 -83.5 55t-83.5 84l3 102h711z" />
<glyph unicode="Q" horiz-adv-x="2029" d="M1890 -3q-60 -20 -122 -21q-96 0 -199 43q-33 14 -83 44q-16 -3 -109 -28q-131 -35 -206 -35q-20 -2 -31.5 12.5t-11.5 36.5q0 24 12 48t31 37q38 25 58 38q38 25 50 64q-43 36 -85 73q-54 38 -104 45t-50 40q0 35 24.5 71t52.5 33q57 -6 144.5 -30.5t90.5 -26.5 q22 69 32 175.5t10 215.5q0 296 -71 439q-60 123 -171 142q-22 0 -35 23.5t-13 53.5q0 33 13.5 58.5t35.5 26.5q351 0 570 -222q213 -216 213 -546q0 -170 -63.5 -334t-169.5 -262q32 -46 85 -57q49 -6 99 -12zM868 169q19 -6 28.5 -31.5t9.5 -55.5q0 -38 -10.5 -61.5 t-27.5 -22.5q-310 0 -539 232q-236 239 -236 583q0 326 226 544t546 218q20 0 33.5 -22.5t13.5 -52.5q0 -32 -12.5 -53t-39.5 -29q-104 -68 -162 -239.5t-58 -371.5q0 -238 52 -401q59 -183 176 -237z" />
<glyph unicode="R" horiz-adv-x="2099" d="M2016 222q19 -5 29.5 -27t10.5 -52q0 -33 -10.5 -55.5t-32.5 -29.5q-68 -30 -136 -43t-160 -13q-118 0 -179 23q-82 32 -133 120q-33 57 -41 119t-8 150v41q0 107 -20.5 156t-62.5 82q-47 20 -117 33q-83 11 -118 16q-17 0 -26.5 16.5t-9.5 41.5q0 33 15 58.5t43 25.5 q140 0 221 50q101 63 101 207q0 106 -112 182q-96 66 -188 66q-20 0 -32 24t-12 60q0 41 16 70t47 29h35q132 5 151 5q76 0 109 -5q222 0 357 -101q145 -107 145 -296q0 -134 -86 -225q-80 -83 -222 -121q83 -9 152 -59q63 -44 95.5 -103.5t39 -197.5t20.5 -190 q8 -32 42 -47q25 -11 55 -11h16q1 -1 6 1zM810 1577v-1312q0 -57 132 -74.5t132 -89.5l-1 -103l-977 2q-8 9 -11 21t-3 25q0 27 11 56l6 15q0 50 80.5 69t80.5 55l3 1095q0 36 -83.5 55t-83.5 84l3 102h711z" />
<glyph unicode="S" horiz-adv-x="1430" d="M1284 1574l3 -495l-145 -5q-24 17 -38 62q-38 118 -42 124q-49 63 -95 96q-61 44 -127 45q-25 -5 -38.5 23.5t-13.5 68.5q0 33 8.5 55.5t19.5 24t16 1.5h11q41 0 108.5 -33t99.5 -33q27 0 53 15.5t51 50.5h129zM1356 614q9 -50 10 -96q0 -219 -173.5 -367t-415.5 -148 q-20 -3 -32 25.5t-12 70.5q0 38 8.5 65.5t25.5 33.5q120 11 181 54q50 35 51 91q0 109 -131 161q-47 19 -259 62.5t-352 172.5q-156 145 -156 339q0 198 141 347t338 149q27 -6 40 -34.5t13 -64.5q0 -33 -11 -58.5t-28 -25.5q-69 -14 -117 -65.5t-48 -110.5q0 -36 22 -68 q87 -126 277 -142q269 -24 307 -38q115 -41 204.5 -139.5t116.5 -213.5zM83 2l-3 501l145 -2q24 -17 38 -61q38 -118 43 -125q49 -63 94 -96q61 -44 128 -44q25 5 38.5 -23.5t13.5 -69.5q0 -33 -9 -55t-20 -23.5t-15 -1.5h-11q-41 0 -109 33t-99 33q-27 0 -53 -16t-51 -50 h-130z" />
<glyph unicode="T" horiz-adv-x="2040" d="M1936 1572l-1 -784q-8 -2 -26 -2q-63 0 -115.5 38t-52.5 98l-2 323q0 46 -132 124q-63 38 -63 88l-2 118zM493 1575l-1 -118q0 -57 -98 -107t-98 -105l-1 -323q0 -60 -53 -98t-118 -38q-16 0 -23 2l-2 784zM1464 -2h-905l3 109q0 58 91.5 82t91.5 68v1318h520l2 -1326 q0 -43 97.5 -58.5t97.5 -77.5z" />
<glyph unicode="U" horiz-adv-x="1981" d="M1872 1459q0 -25 -120 -76q-58 -25 -58 -63v-677q0 -277 -81 -440q-101 -205 -318 -205q-27 0 -43.5 29.5t-16.5 68.5q0 28 8.5 53.5t26.5 37.5q121 0 173 152q38 110 38 304l-2 688q0 44 -99 61.5t-99 63.5l-2 119l593 -3v-113zM1022 172q17 -3 31.5 -33t14.5 -65 t-15.5 -56t-53.5 -21q-279 0 -462 93q-236 120 -236 364l1 805q0 58 -92.5 89.5t-92.5 86.5l1 137h191.5h301.5h361v-116q0 -46 -76.5 -88t-76.5 -68l-3 -894q0 -109 63 -168q50 -47 143 -66z" />
<glyph unicode="V" horiz-adv-x="1799" d="M1717 1457q0 -60 -87.5 -78t-102.5 -68l-256 -790l-115 284l153 504q13 39 -64.5 72.5t-77.5 77.5l-4 116h559zM1177 239l-71 -237l-348 -5l-503 1296q-16 39 -92 79.5t-76 89.5l1 110l857 5l-3 -124q0 -54 -74 -82.5t-74 -56.5q0 -9 5 -22z" />
<glyph unicode="W" horiz-adv-x="2947" d="M2258 249l-100 -247l-337 -10l-391 1282q-25 80 -100.5 109.5t-75.5 108.5l-3 82l832 -2l1 -131q0 -35 -76.5 -55t-66.5 -53zM1330 715l-265 -718l-343 5l-423 1277q-9 30 -88 72t-79 105v121l818 -5l14 -102q5 -39 -75.5 -68.5t-80.5 -81.5q0 -19 6 -39l226 -723 l192 457zM2845 1457q0 -60 -87.5 -78t-102.5 -68l-287 -752l-115 284l184 466q3 6 3 17q0 24 -72.5 57t-72.5 76l-4 116h559z" />
<glyph unicode="X" horiz-adv-x="1936" d="M1831 1464q0 -49 -68 -71q-96 -32 -117 -51l-283 -264l-120 129l109 115q20 22 20 41q0 27 -60.5 59t-60.5 51v102l583 2zM1846 117l-3 -117l-956 -3v120q0 46 75.5 88t75.5 68q0 16 -9 26l-736 1043q-16 24 -87 62q-55 30 -55 72l2 96h893l8 -113q0 -36 -74 -72.5 t-74 -66.5q0 -19 17 -41l782 -1047q22 -30 66 -48q75 -31 75 -67zM685 421l-153 -169q-13 -13 -12 -27q0 -13 98 -75q47 -30 47 -63l3 -90h-567l-3 94q0 55 56 78q87 33 117 64l302 322z" />
<glyph unicode="Y" horiz-adv-x="1986" d="M1879 1572l-3 -108q0 -55 -71 -92q-91 -47 -115 -88l-308 -514l-111 199l197 359q6 16 7 21q0 25 -68.5 50t-68.5 52q-3 6 -4 11q-8 32 -8 58q0 38 19 52h534zM1353 143v-143h-909v128q0 50 100 88t100 118l-1 268l-391 691q-19 35 -66 59q-79 39 -79 89l2 134l850 -1 l-1 -134q0 -43 -72.5 -71t-72.5 -50q0 -9 6 -21l342 -677l-3 -328q0 -46 97.5 -69.5t97.5 -80.5z" />
<glyph unicode="Z" horiz-adv-x="1698" d="M1549 1572l-947 -1572l-533 -3l919 1577zM1615 633l-5 -631h-733l111 193q129 0 198 21q96 28 166 109q49 57 75 181q8 41 18 115q9 30 37.5 45.5t61.5 15.5q28 0 49.5 -13.5t21.5 -35.5zM61 1030l-1 538h732l-110 -194h-46t-42 1q-88 0 -140 -15q-69 -22 -120.5 -81.5 t-81.5 -152.5q-9 -30 -20 -83q-13 -28 -42 -45t-61 -17q-28 0 -48 12.5t-20 36.5z" />
<glyph unicode="a" horiz-adv-x="2046" d="M1909 129l29 -129l-947 2l16 122q5 39 94.5 55t89.5 49q0 13 -6 27q-9 54 -18 82q-25 88 -63 112q-19 2 -87.5 3.5t-69.5 1.5h-67t-47 -2q-20 0 -31 21.5t-11 51.5q0 28 10 48.5t31 20.5l242 -3l-324 699l107 284l386 1l499 -1304q16 -39 62 -61q97 -46 105 -81zM736 887 l-215 -550q-8 -19 -11 -36t-3 -30q0 -57 94 -79t94 -66l8 -129l-616 5l-2 99q0 58 85 97q99 46 121 100l345 825q19 -13 40 -23q65 -101 64 -186q1 -18 -4 -27z" />
<glyph unicode="b" horiz-adv-x="2104" d="M1556 2l-475 -5q-32 0 -47 19t-15 49q0 36 20 70t43 34q143 0 244 74q118 87 119 236q0 126 -126 191q-106 54 -263 53q-22 0 -36.5 25.5t-14.5 56.5q0 32 13.5 54.5t37.5 22.5q165 20 247 76q102 69 102 205q0 129 -99 187q-88 52 -258 52q-27 -2 -42 25t-15 66 q0 35 13.5 59.5t39.5 24.5l440 -2q183 0 312 -86q148 -99 148 -270q0 -135 -98 -239q-80 -85 -215 -143q137 -14 248 -118.5t128 -238.5q0 -194 -123 -332q-130 -146 -328 -146zM833 -3h-715v148q0 44 96 61.5t96 61.5l-1 1008q0 76 -95.5 91.5t-95.5 59.5l2 145h709z" />
<glyph unicode="c" horiz-adv-x="1701" d="M1612 1008q0 -27 -23 -41.5t-53 -14.5q-60 0 -74 39q-14 55 -24 85q-28 88 -56 135q-44 77 -135 131t-182 65q-24 0 -37 23.5t-13 58.5q0 36 13 61t37 25q106 0 197 -28q123 -38 146 -41q20 36 62 56t85 20q55 0 55 -37zM1504 165q-69 -80 -129 -115q-79 -46 -192 -45 q-39 0 -99 8q-17 -2 -27.5 22.5t-10.5 59.5t10.5 63t27.5 29q93 9 152 40t111 99q36 47 58 143q6 32 14 87q6 22 45.5 37t87.5 15q35 0 58.5 -10t23.5 -31q0 -8 -2 -12q-19 -102 -33 -160q-45 -172 -95 -230zM859 11q-60 -9 -114 -9q-302 0 -493 255q-175 233 -175 546 q0 296 222 530q228 239 533 239q20 0 32 -26.5t12 -61.5q0 -36 -12 -63t-32 -28q-137 -41 -181 -237q-24 -106 -24 -337q0 -172 9 -263q16 -156 62 -249q55 -113 156 -127q22 2 34.5 -23.5t12.5 -60.5q0 -36 -11 -60.5t-31 -24.5z" />
<glyph unicode="d" horiz-adv-x="2052" d="M1081 -3q-17 0 -27.5 25t-10.5 58q0 30 8.5 50.5t24.5 20.5q147 27 224 137q65 91 85 248q13 95 12 290q0 262 -48 367q-69 148 -281 184q-19 -2 -30 25t-11 63q0 44 11 73.5t33 29.5q350 0 605 -182q284 -202 284 -535q0 -391 -178 -601q-216 -253 -701 -253zM833 -3 l-710 5l1 133q0 30 81.5 50.5t81.5 74.5l1 1079q0 43 -85 55.5t-85 46.5l-1 134l716 2v-1580z" />
<glyph unicode="e" horiz-adv-x="1817" d="M1356 548l-100 -3q-49 0 -65 86t-72 86h-90q-20 -2 -30.5 20t-10.5 60q0 43 11.5 76.5t29.5 33.5h93q49 0 56.5 94.5t64.5 94.5h113v-548zM1728 -2h-655l-5 161q0 46 30 60t88 14q19 0 39.5 -0.5t42.5 -0.5q46 0 81.5 7t62.5 29q58 49 72 218t98 169h145zM1728 1577 l-1 -632h-145q-82 0 -94.5 155.5t-75.5 207.5q-25 22 -61 29t-86 7q-20 0 -40.5 -1t-39.5 -1q-61 0 -84 11q-33 16 -33 63l5 161h655zM819 1577l-1 -1579l-712 2l3 98q0 46 82.5 74t82.5 69v1095q0 38 -84 57t-84 82l3 102h710z" />
<glyph unicode="f" horiz-adv-x="1788" d="M1356 548l-100 -3q-49 0 -65 86t-72 86h-90q-20 -2 -31.5 24t-11.5 64q0 41 11 69.5t32 32.5h93q49 0 56.5 94.5t64.5 94.5h113v-548zM1728 1577l-1 -632h-145q-82 0 -94.5 155.5t-75.5 207.5q-25 22 -61 29t-86 7q-20 0 -40.5 -1t-39.5 -1q-61 0 -84 11q-33 16 -33 63 l5 161h655zM832 1577v-1312q0 -57 132 -74.5t132 -89.5l-1 -103l-977 2q-8 9 -11 21t-3 25q0 27 11 56l6 15q0 50 80.5 69t80.5 55l3 1095q0 36 -83.5 55t-83.5 84l3 102h711z" />
<glyph unicode="g" horiz-adv-x="1890" d="M1613 985h-83q-74 0 -90 64q-11 60 -22 122q-46 115 -155 173q-77 41 -217 63q-22 0 -32 19t-10 52q0 38 12.5 67t31.5 27q132 0 214 -10t159 -50q16 -8 25 11q27 50 55 51l109 -2zM1809 766l-4 -90q0 -65 -104 -96q-50 -16 -50 -52l-2 -517q-14 -2 -29 -2.5t-23 -0.5 q-60 0 -100.5 21t-69.5 72q-61 -61 -135 -88q-61 -22 -134 -22q-35 0 -65 3.5t-58 10t-38.5 28.5t-10.5 52q0 33 11 59t29 26q72 0 110 14q69 25 69 96l-3 265q0 28 -67 45.5t-67 71.5l3 105zM835 8q-43 -5 -82 -5q-280 0 -479 246q-187 233 -187 532q0 307 216.5 550 t509.5 243l-2 -170q-88 -14 -137 -120q-38 -83 -49.5 -208.5t-11.5 -268.5q0 -307 66 -471q55 -137 159 -177q16 -6 25.5 -30.5t9.5 -52.5t-10.5 -48t-27.5 -20z" />
<glyph unicode="h" horiz-adv-x="2259" d="M2201 1575l-2 -127q0 -49 -97 -54t-97 -99v-1038q0 -43 91.5 -66.5t91.5 -83.5l3 -109h-904l2 115q0 63 93 79t93 57v471l-189 -3q-17 -2 -27.5 22.5t-10.5 60.5t10 63t28 27l201 -5l-1 408q0 80 -82 93t-82 59l-3 130h882zM1051 717l-189 3v-471q0 -41 93 -57t93 -79 l1 -115h-904l3 109q0 58 91.5 82t91.5 68v1038q0 95 -97 99.5t-97 53.5l-2 127h883l-3 -130q0 -46 -82 -58.5t-82 -93.5l-2 -408l202 5q22 2 33.5 -19.5t11.5 -57.5q0 -38 -13 -68t-32 -28z" />
<glyph unicode="i" horiz-adv-x="1046" d="M762 249q0 -43 98 -58.5t98 -77.5l1 -115h-904l3 109q0 58 91.5 82t91.5 68v1038q0 95 -97 99.5t-97 53.5l-1 127h910l-3 -130q0 -43 -96 -55.5t-96 -105.5z" />
<glyph unicode="j" horiz-adv-x="1849" d="M1747 1449q0 -38 -86 -60t-86 -59v-597q0 -180 -28 -303t-97.5 -220t-184.5 -156t-238 -59v1311q0 46 -99 68t-99 83l-2 118l922 -3zM769 3q-43 -6 -98 -6q-227 0 -397 102q-191 115 -191 303q0 131 92.5 226t221.5 95q91 0 175 -74q90 -80 90 -180q0 -17 -2 -25 q-9 -58 -37 -103t-75 -78q28 -35 77 -55.5t104 -20.5q14 0 40 4q24 -5 38 -36t14 -68q0 -38 -12.5 -61t-39.5 -23z" />
<glyph unicode="k" horiz-adv-x="2301" d="M2177 120v-120l-846 -2l2 128q0 27 53.5 49t53.5 39q0 6 -5 16l-329 583l364 480q20 27 20 48q0 27 -78.5 52t-78.5 63l1 119l653 -1l-2 -103q0 -63 -72.5 -74t-100.5 -45l-274 -330l494 -778q28 -44 93 -66q52 -17 52 -58zM852 249q0 -43 98 -58.5t98 -77.5l1 -115h-904 l3 109q0 58 91.5 82t91.5 68v1038q0 95 -97 99.5t-97 53.5l-2 127h906l-3 -130q0 -46 -93.5 -58.5t-93.5 -93.5z" />
<glyph unicode="l" horiz-adv-x="1814" d="M1727 0h-643v123q0 71 132.5 76.5t174.5 36.5q99 74 150 244q16 57 30 158q14 30 39 44t54 14q27 0 45 -11t18 -31v-654zM799 -2h-706l3 109q0 58 91.5 82t91.5 68v1038q0 95 -97 99.5t-97 53.5l-2 127h911l-3 -130q0 -43 -96 -55.5t-96 -105.5v-1286z" />
<glyph unicode="m" horiz-adv-x="2522" d="M2426 118l-1 -118h-859v124q0 43 78.5 79t78.5 79v1293h708l1 -121q0 -43 -100 -76t-100 -83v-1021q0 -46 97 -70.5t97 -85.5zM1449 972l-297 -940q-5 -14 -21.5 -24.5t-35.5 -10.5q-33 0 -46 27l-591 1266q-22 47 -200 88q-74 17 -74 57l3 140l695 -3l320 -690l246 693z M627 101v-101h-551v107q0 38 91 64.5t91 82.5v861l180 -319v-530q0 -49 94.5 -83.5t94.5 -81.5z" />
<glyph unicode="n" horiz-adv-x="1994" d="M1878 1457q0 -46 -101 -71t-101 -74v-475l-195 248v230q0 39 -112 92q-54 25 -54 68l-3 97h563zM1678 518v-518h-243l-1092 1382q-17 22 -80 34.5t-63 56.5v102h662zM616 101v-101h-551v107q0 38 91 64.5t91 82.5v899l180 -320v-567q0 -49 94.5 -83.5t94.5 -81.5z" />
<glyph unicode="o" horiz-adv-x="1887" d="M1815 780q0 -334 -221.5 -555.5t-534.5 -221.5q-39 0 -40 58q0 27 10.5 49t27.5 22q145 33 195 194q33 106 34 337v125q0 162 -7 236q-11 137 -49 221q-47 106 -138 143q-20 0 -34 30t-14 71q0 36 12 59.5t37 22.5q296 0 509 -233t213 -558zM846 132q19 0 28.5 -18 t9.5 -43q0 -28 -10.5 -49.5t-27.5 -21.5q-314 0 -532 219q-225 225 -226 561q0 325 213 558t509 233q25 0 43 -32.5t18 -73.5q0 -33 -15.5 -55t-47.5 -22q-120 -32 -162 -184q-28 -102 -28 -306v-110v-125q0 -291 59 -403q56 -103 169 -128z" />
<glyph unicode="p" horiz-adv-x="2003" d="M1930 1109q0 -184 -142.5 -305.5t-339.5 -121.5q-91 -2 -177 -2.5t-204 -2.5q-25 0 -38.5 20t-13.5 51q0 35 14 62.5t38 27.5q158 14 239.5 93t81.5 210t-73 201q-82 79 -248 79q-24 -2 -39 24t-15 61q0 66 43 66l378 3q194 0 340 -127q156 -136 156 -339zM818 1577 v-1312q0 -57 132 -74.5t132 -89.5l-1 -103l-977 2q-8 9 -11 21t-3 25q0 27 11 56l6 15q0 50 80.5 69t80.5 55l3 1095q0 36 -83.5 55t-83.5 84l3 102h711z" />
<glyph unicode="q" horiz-adv-x="2029" d="M1890 -3q-60 -20 -122 -21q-96 0 -199 43q-33 14 -83 44q-16 -3 -109 -28q-131 -35 -206 -35q-20 -2 -31.5 12.5t-11.5 36.5q0 24 12 48t31 37q38 25 58 38q38 25 50 64q-43 36 -85 73q-54 38 -104 45t-50 40q0 35 24.5 71t52.5 33q57 -6 144.5 -30.5t90.5 -26.5 q22 69 32 175.5t10 215.5q0 296 -71 439q-60 123 -171 142q-22 0 -35 23.5t-13 53.5q0 33 13.5 58.5t35.5 26.5q351 0 570 -222q213 -216 213 -546q0 -170 -63.5 -334t-169.5 -262q32 -46 85 -57q49 -6 99 -12zM868 169q19 -6 28.5 -31.5t9.5 -55.5q0 -38 -10.5 -61.5 t-27.5 -22.5q-310 0 -539 232q-236 239 -236 583q0 326 226 544t546 218q20 0 33.5 -22.5t13.5 -52.5q0 -32 -12.5 -53t-39.5 -29q-104 -68 -162 -239.5t-58 -371.5q0 -238 52 -401q59 -183 176 -237z" />
<glyph unicode="r" horiz-adv-x="2099" d="M2016 222q19 -5 29.5 -27t10.5 -52q0 -33 -10.5 -55.5t-32.5 -29.5q-68 -30 -136 -43t-160 -13q-118 0 -179 23q-82 32 -133 120q-33 57 -41 119t-8 150v41q0 107 -20.5 156t-62.5 82q-47 20 -117 33q-83 11 -118 16q-17 0 -26.5 16.5t-9.5 41.5q0 33 15 58.5t43 25.5 q140 0 221 50q101 63 101 207q0 106 -112 182q-96 66 -188 66q-20 0 -32 24t-12 60q0 41 16 70t47 29h35q132 5 151 5q76 0 109 -5q222 0 357 -101q145 -107 145 -296q0 -134 -86 -225q-80 -83 -222 -121q83 -9 152 -59q63 -44 95.5 -103.5t39 -197.5t20.5 -190 q8 -32 42 -47q25 -11 55 -11h16q1 -1 6 1zM810 1577v-1312q0 -57 132 -74.5t132 -89.5l-1 -103l-977 2q-8 9 -11 21t-3 25q0 27 11 56l6 15q0 50 80.5 69t80.5 55l3 1095q0 36 -83.5 55t-83.5 84l3 102h711z" />
<glyph unicode="s" horiz-adv-x="1430" d="M1284 1574l3 -495l-145 -5q-24 17 -38 62q-38 118 -42 124q-49 63 -95 96q-61 44 -127 45q-25 -5 -38.5 23.5t-13.5 68.5q0 33 8.5 55.5t19.5 24t16 1.5h11q41 0 108.5 -33t99.5 -33q27 0 53 15.5t51 50.5h129zM1356 614q9 -50 10 -96q0 -219 -173.5 -367t-415.5 -148 q-20 -3 -32 25.5t-12 70.5q0 38 8.5 65.5t25.5 33.5q120 11 181 54q50 35 51 91q0 109 -131 161q-47 19 -259 62.5t-352 172.5q-156 145 -156 339q0 198 141 347t338 149q27 -6 40 -34.5t13 -64.5q0 -33 -11 -58.5t-28 -25.5q-69 -14 -117 -65.5t-48 -110.5q0 -36 22 -68 q87 -126 277 -142q269 -24 307 -38q115 -41 204.5 -139.5t116.5 -213.5zM83 2l-3 501l145 -2q24 -17 38 -61q38 -118 43 -125q49 -63 94 -96q61 -44 128 -44q25 5 38.5 -23.5t13.5 -69.5q0 -33 -9 -55t-20 -23.5t-15 -1.5h-11q-41 0 -109 33t-99 33q-27 0 -53 -16t-51 -50 h-130z" />
<glyph unicode="t" horiz-adv-x="2040" d="M1936 1572l-1 -784q-8 -2 -26 -2q-63 0 -115.5 38t-52.5 98l-2 323q0 46 -132 124q-63 38 -63 88l-2 118zM493 1575l-1 -118q0 -57 -98 -107t-98 -105l-1 -323q0 -60 -53 -98t-118 -38q-16 0 -23 2l-2 784zM1464 -2h-905l3 109q0 58 91.5 82t91.5 68v1318h520l2 -1326 q0 -43 97.5 -58.5t97.5 -77.5z" />
<glyph unicode="u" horiz-adv-x="1981" d="M1872 1459q0 -25 -120 -76q-58 -25 -58 -63v-677q0 -277 -81 -440q-101 -205 -318 -205q-27 0 -43.5 29.5t-16.5 68.5q0 28 8.5 53.5t26.5 37.5q121 0 173 152q38 110 38 304l-2 688q0 44 -99 61.5t-99 63.5l-2 119l593 -3v-113zM1022 172q17 -3 31.5 -33t14.5 -65 t-15.5 -56t-53.5 -21q-279 0 -462 93q-236 120 -236 364l1 805q0 58 -92.5 89.5t-92.5 86.5l1 137h191.5h301.5h361v-116q0 -46 -76.5 -88t-76.5 -68l-3 -894q0 -109 63 -168q50 -47 143 -66z" />
<glyph unicode="v" horiz-adv-x="1799" d="M1717 1457q0 -60 -87.5 -78t-102.5 -68l-256 -790l-115 284l153 504q13 39 -64.5 72.5t-77.5 77.5l-4 116h559zM1177 239l-71 -237l-348 -5l-503 1296q-16 39 -92 79.5t-76 89.5l1 110l857 5l-3 -124q0 -54 -74 -82.5t-74 -56.5q0 -9 5 -22z" />
<glyph unicode="w" horiz-adv-x="2947" d="M2258 249l-100 -247l-337 -10l-391 1282q-25 80 -100.5 109.5t-75.5 108.5l-3 82l832 -2l1 -131q0 -35 -76.5 -55t-66.5 -53zM1330 715l-265 -718l-343 5l-423 1277q-9 30 -88 72t-79 105v121l818 -5l14 -102q5 -39 -75.5 -68.5t-80.5 -81.5q0 -19 6 -39l226 -723 l192 457zM2845 1457q0 -60 -87.5 -78t-102.5 -68l-287 -752l-115 284l184 466q3 6 3 17q0 24 -72.5 57t-72.5 76l-4 116h559z" />
<glyph unicode="x" horiz-adv-x="1936" d="M1831 1464q0 -49 -68 -71q-96 -32 -117 -51l-283 -264l-120 129l109 115q20 22 20 41q0 27 -60.5 59t-60.5 51v102l583 2zM1846 117l-3 -117l-956 -3v120q0 46 75.5 88t75.5 68q0 16 -9 26l-736 1043q-16 24 -87 62q-55 30 -55 72l2 96h893l8 -113q0 -36 -74 -72.5 t-74 -66.5q0 -19 17 -41l782 -1047q22 -30 66 -48q75 -31 75 -67zM685 421l-153 -169q-13 -13 -12 -27q0 -13 98 -75q47 -30 47 -63l3 -90h-567l-3 94q0 55 56 78q87 33 117 64l302 322z" />
<glyph unicode="y" horiz-adv-x="1986" d="M1879 1572l-3 -108q0 -55 -71 -92q-91 -47 -115 -88l-308 -514l-111 199l197 359q6 16 7 21q0 25 -68.5 50t-68.5 52q-3 6 -4 11q-8 32 -8 58q0 38 19 52h534zM1353 143v-143h-909v128q0 50 100 88t100 118l-1 268l-391 691q-19 35 -66 59q-79 39 -79 89l2 134l850 -1 l-1 -134q0 -43 -72.5 -71t-72.5 -50q0 -9 6 -21l342 -677l-3 -328q0 -46 97.5 -69.5t97.5 -80.5z" />
<glyph unicode="z" horiz-adv-x="1698" d="M1549 1572l-947 -1572l-533 -3l919 1577zM1615 633l-5 -631h-733l111 193q129 0 198 21q96 28 166 109q49 57 75 181q8 41 18 115q9 30 37.5 45.5t61.5 15.5q28 0 49.5 -13.5t21.5 -35.5zM61 1030l-1 538h732l-110 -194h-46t-42 1q-88 0 -140 -15q-69 -22 -120.5 -81.5 t-81.5 -152.5q-9 -30 -20 -83q-13 -28 -42 -45t-61 -17q-28 0 -48 12.5t-20 36.5z" />
<glyph unicode="&#xad;" horiz-adv-x="983" d="M85 1002h813v-227h-813v227z" />
<glyph unicode="&#xaf;" horiz-adv-x="1873" d="M1602 1060q-24 -6 -49 -6q-22 0 -62 5.5t-54 5.5q-9 6 -11.5 22.5t-4.5 19.5q44 25 75.5 61.5t42.5 77.5q-8 17 -30 17q-17 0 -34 -12q-11 -8 -13 -31.5t-9 -26.5q-13 0 -24 7q-6 5 -19 21q-5 9 -5 17q0 11 10 21l31 31q9 0 30 3.5t30 3.5q16 0 28 -7q14 -14 24 -25 t16 -28q-3 -33 -22 -66q-9 -17 -43 -59q13 -16 53 -20t40 -32zM1363 1265q0 -69 -38 -131q-20 -13 -38 -45q-6 -13 -20 -51q-19 3 -22 6q-8 13 -8 29q0 19 14 38q43 60 44 63q-8 -6 -21 -7q-11 0 -33 9.5t-25 9.5q-25 27 -31.5 42t-6.5 35q0 11 5 24q19 19 42.5 28.5 t50.5 9.5q32 0 55.5 -15t31.5 -45zM1139 1268q5 -19 5 -36q0 -41 -24 -90q-33 -57 -47 -80q-17 0 -24 16q-2 5 -5 18l41 86q-9 2 -29 1q-33 0 -50.5 5t-26.5 23.5t-9 39.5q0 19 7 33q30 25 77 42q30 5 51 -11.5t34 -46.5zM1583 696q0 -8 1.5 -36t1.5 -46q0 -25 -1.5 -42 t-7.5 -32q-11 8 -16 20t-5 26q2 27 2 39q0 14 -3 21q-6 -5 -16.5 -16.5t-19.5 -18.5q-20 2 -34 15.5t-21 33t-7 39.5q0 30 16 59.5t43 54.5q13 9 22 9q8 0 14 -6l3 -5l6 82q17 6 18 -8.5t3 -25.5q-2 -20 3.5 -63t5.5 -56q0 -20 -8 -44zM1394 838q-2 -9 -19 -9q-6 13 -9 19 q-6 13 -2 22q16 5 27 -5.5t3 -26.5zM1782 362h-29q-6 6 -6 15q0 6 5 18.5t5 17.5q13 -6 22 -15.5t9 -20.5q0 -9 -6 -15zM936 1085q-27 11 -27 37q0 14 2 22q8 38 7 41q0 13 -6 23q0 9 -1 16q-2 6 -13 33q-5 -16 -24 -34.5t-22 -33.5q-24 0 -31 26q2 5 50 71q17 24 22 48 q17 -9 24 -14q8 -8 8 -14q8 -36 17.5 -74t9.5 -71q0 -40 -16 -76zM1378 662q-11 0 -17 13t-11 28q2 16 -3.5 41t-5.5 31q0 5 3 17q14 -2 20 -12q5 -8 -1 -14q9 -32 13 -58t2 -46zM1286 792q8 -13 7 -20q0 -17 -16.5 -41t-17.5 -28l-8 -70q-20 -11 -30 10.5t-16 40.5 q0 17 -6 58t-6 58q16 -5 22.5 -23.5t13.5 -37.5q2 2 22 39q15 27 35 14zM1779 80q-5 -5 -15 -1q-6 2 -11 3q0 28 -6 93.5t-6 86.5q25 -32 29 -83.5t9 -98.5zM1695 250q-8 -6 -39 -28q-46 -32 -57 -60q27 -49 76 -49l4 -22q0 -11 -15 -11q-33 5 -53.5 25.5t-36.5 55.5 q-6 -17 -6 -43q2 -32 1 -46v-12q-3 -8 -3 -11q-24 2 -24 30q2 20 2 30q0 11 -5 20q0 33 6.5 121.5t6.5 130.5q16 0 22 -19q0 -11 -1 -24t-1 -17q0 -28 2.5 -71.5t2.5 -44.5l98 75zM1161 625l-3 -9q-24 -5 -32 16q-13 35 -15 38q-17 -19 -35 -37q-16 -5 -32 5q-6 3 -23 19 q-8 24 -8 39q0 25 12 51.5t32 48.5l43 17q28 -11 28 -28q-13 -24 -13 -40q0 -13 13 -25q9 -14 12.5 -48t20.5 -47zM1041 800q-2 -3 -113 -119q-44 -46 -60 -81q11 -3 16 -5q8 -3 12 -9q-9 -11 -14 -17q-11 -13 -20 -13q-5 0 -11 6q-16 13 -16 33q0 17 10 40.5t21 45.5 q-9 33 -9 67q0 33 7 69.5t10 56.5q19 0 24 -14t0 -31q-6 -5 -0.5 -17t0.5 -16q-3 -25 -5.5 -42.5t-2.5 -20.5q0 -19 6 -30q-5 11 12 16.5t10 16.5q39 35 57 52q32 32 43 66q-14 20 -38.5 29.5t-51.5 9.5q-32 0 -69 -9.5t-70 -17.5q0 -13 -8 -12h-25q-3 6 -6 11q-9 13 -8 20 q27 22 76.5 27.5t62.5 10.5q5 -8 9 -8q19 11 28 11q6 0 11 -8q16 3 23 4q49 0 80 -49q8 -11 13.5 -23t5.5 -23q-1 -13 -10 -27zM1497 113q3 -13 -11.5 -25t-20.5 -17q-13 -3 -19 -3q-22 0 -36 10t-35 34v11q5 13 19 5q2 -20 30 -21q9 0 17 5l23 16q-8 6 -42 18t-42 37 q0 13 2 20q11 50 52 66q2 14 17 15q13 0 24 -8t11 -21q-22 3 -41 -17.5t-35 -37.5q5 -6 49 -35q35 -22 38 -52zM591 1227q0 -50 -21.5 -91t-60.5 -74q-13 8 -21 -5t-14 -13q-54 -22 -116 -44.5t-112 -22.5q-57 0 -95 30q-47 35 -60 47q-27 28 -26 63q0 47 44 129 q49 39 97 79q13 13 28.5 26t30.5 13q17 24 71.5 36.5t63.5 17.5q57 0 102 -25.5t65 -70.5q11 -17 14.5 -49t9.5 -46zM1338 175q0 -54 -14.5 -84t-37.5 -42q-30 0 -43 2.5t-19 19.5q-11 -2 -26 -17t-26 -15t-22 11t-20.5 35.5t-9.5 68.5v29q3 20 3 30q0 17 8 19q19 0 19 -30 q0 -17 -8 -46q0 -3 -3 -11q-13 3 -13 -10q0 -14 29 -42q32 9 43.5 59t14.5 54q27 -14 27 -41q-3 -24 -3 -36q0 -14 3 -20q3 -8 19 -19q16 3 27 22q11 25 16.5 36t5.5 30q-2 28 -2 43q-24 17 -24 28q0 9 4 16q6 8 15.5 -2.5t15.5 -8.5q3 -6 8 -26q11 -50 13 -53zM1073 216 v-49q0 -27 -4 -45t-21 -32q-16 -5 -45 -31t-50 -26q-6 0 -19 3q-22 14 -31 19q-17 11 -22 27.5t-5 30.5q0 30 14 73q13 5 21 19q14 24 17 27q39 44 102 44q5 -8 21 -27t22 -33zM570 715q2 -14 2 -20q0 -35 -16.5 -98t-16.5 -88q0 -14 1 -22q-27 -9 -37 16q3 6 3 20 q-2 17 -2 27q0 24 14 33l-8 63q-33 22 -53 44q-28 30 -38 61q19 -3 49 -33l41 -41q19 0 23 10l8 93q19 -8 24.5 -24.5t5.5 -40.5zM389 729q2 -6 2 -19q0 -30 -37 -53l-74 -25v-10q-8 -5 -25 0t-14 19q-9 19 -15.5 76t-22.5 83q-2 11 2.5 25.5t4.5 17.5q19 -6 26 -22 q3 -6 13 -36q61 0 92.5 -14.5t47.5 -41.5zM863 244q-14 0 -24 -20.5t-26 -10.5q0 -19 -19 -19q-22 0 -27 -16q-9 3 -18.5 -4t-19.5 -20q28 -5 62.5 -45t59.5 -48q0 -8 11 -15.5t11 -10.5t-14 -11q-6 3 -87 67q-32 25 -57 33q-9 -22 -17 -58t-11 -63q-11 -9 -27 13 q-13 2 -27 5t-30 14l-47 52q-20 -24 -40 -35t-37 -11q-16 0 -32 11q-25 35 -25 71q0 20 10 44q2 2 37 49q22 28 56 38q19 -13 28 -19q17 -13 24 -25q3 -13 3 -38v-29q0 -25 5.5 -42.5t24.5 -34.5q19 0 34 -6t26 -24q2 19 14 113t12 141q0 33 -4 64q11 -5 21 -16.5t9 -25.5 q0 -16 3 -41t3 -38q0 -22 -6 -42q28 3 61 32t65 57q8 -9 11 -14q7 -11 4 -22zM427 20q3 -3 0 -9q-3 -5 -8 -8q-36 8 -65 35q-47 43 -92 86q-9 3 -26 10.5t-26 7.5q-17 -14 -18 -40q0 -11 4 -34.5t4 -29.5q0 -20 -13 -33q-19 5 -22 27t-3 23q0 68 1 120t4 109q-13 -8 -16 -37 q-9 -5 -24 0t-15 27q0 32 36 60q17 14 36 28q38 27 87 27q38 0 75 -15.5t68 -42.5q17 -13 18 -41q0 -16 -10 -28q-25 -24 -36 -35q-22 -20 -44 -22q-8 -8 -25 -16q-33 -16 -41 -27l30 -33q13 -11 58 -60q35 -38 63 -49zM1319 1279q-11 6 -27 7q-20 0 -36 -7.5t-32 -21.5 q-3 -8 -3 -12v-11q0 -16 14 -16q8 0 24.5 4t19.5 4q24 0 27 -26q2 8 11 27t9 29q1 14 -7 23zM1107 1265q-8 16 -26 16q-9 0 -21 -4t-25 -8t-20.5 -16.5t-4.5 -28.5l66 3q17 13 24 19q7 10 7 19zM1555 774l-32 -19q-3 -6 -22 -28.5t-19 -36.5q0 -13 11 -25q8 -5 13 -5 q8 0 19 11t19 10l6 -4q9 17 10 45q0 25 -5 52zM1085 745q-20 3 -28 -5q-6 -6 -6 -22t1 -31q17 3 25 14.5t8 43.5zM532 1334q-28 25 -57 36.5t-61 11.5q-60 0 -127 -41q-44 -27 -115 -90q-28 -43 -38 -62q-20 -39 -21 -69q0 -22 11 -42q19 -6 51 -27q9 -6 28 -21h29 q11 0 14 -11q5 3 19 3q30 -3 45 -3q16 0 27 7q2 3 54 23q17 6 53 21l76 67q39 52 39 109q0 44 -27 88zM1044 210q-3 5 -5 15.5t-10 10.5q-11 0 -29 -8q-30 6 -47 -24.5t-31 -58.5q2 -5 -1.5 -18.5t-8.5 -30.5q6 -3 19 -3q9 0 21 3q28 8 34 8q30 27 44 49t14 57zM354 723 q-5 16 -19.5 24t-35.5 8q-44 0 -39 -37q3 -22 5.5 -37.5t25.5 -10.5q27 17 42.5 28t20.5 25zM545 206q-50 -17 -77 -66q-6 -22 -6 -33q0 -8 6 -14q19 -3 35.5 12t21.5 19q14 11 15.5 42t4.5 40zM392 317q-6 11 -22 16.5t-20 11.5q-14 6 -33 6q-39 0 -90 -33q-16 -11 -44 -34 q24 -8 23 -35q-5 -27 -4 -39q0 -17 15 -24h38l25 24q13 11 40 25q8 5 25 12q0 11 23.5 32t23.5 38zM377 1171q-14 -25 -33 -42.5t-35 -20t-27 -2.5q-52 0 -66 47v58q9 6 28 41q14 27 32 22q5 11 6 15q3 8 14 8q20 0 30 -11.5t16 -22.5q-5 -3 -2 -11t-3 -9l-16 31 q-33 -20 -54 -53t-18 -66q9 -9 19 -10q9 0 29.5 8t31.5 5q3 8 19 11t16 14z" />
<glyph unicode="&#xb8;" horiz-adv-x="2048" />
<glyph unicode="&#xf0;" horiz-adv-x="1873" />
<glyph unicode="&#xfd;" horiz-adv-x="0" />
<glyph unicode="&#x2c6;" horiz-adv-x="2048" />
<glyph unicode="&#x2dc;" horiz-adv-x="2048" />
<glyph unicode="&#x2000;" horiz-adv-x="791" />
<glyph unicode="&#x2001;" horiz-adv-x="1582" />
<glyph unicode="&#x2002;" horiz-adv-x="791" />
<glyph unicode="&#x2003;" horiz-adv-x="1582" />
<glyph unicode="&#x2004;" horiz-adv-x="527" />
<glyph unicode="&#x2005;" horiz-adv-x="395" />
<glyph unicode="&#x2006;" horiz-adv-x="263" />
<glyph unicode="&#x2007;" horiz-adv-x="263" />
<glyph unicode="&#x2008;" horiz-adv-x="197" />
<glyph unicode="&#x2009;" horiz-adv-x="316" />
<glyph unicode="&#x200a;" horiz-adv-x="87" />
<glyph unicode="&#x2010;" horiz-adv-x="983" d="M85 1002h813v-227h-813v227z" />
<glyph unicode="&#x2011;" horiz-adv-x="983" d="M85 1002h813v-227h-813v227z" />
<glyph unicode="&#x2012;" horiz-adv-x="983" d="M85 1002h813v-227h-813v227z" />
<glyph unicode="&#x2013;" horiz-adv-x="1194" d="M85 1002h1024v-227h-1024v227z" />
<glyph unicode="&#x2014;" horiz-adv-x="2218" d="M85 1002h2048v-227h-2048v227z" />
<glyph unicode="&#x2018;" d="M589 693q-54 43 -105 87q-104 85 -207 172q-126 106 -138 116q-38 35 -58 98t-20 126q0 109 76 184.5t184 75.5q109 0 184.5 -75.5t75.5 -184.5q0 -61 -48 -130t-103 -108q0 -72 79 -224q25 -50 80 -137z" />
<glyph unicode="&#x2019;" d="M591 1292q0 -60 -20 -124.5t-57 -99.5q-9 -9 -137 -115q-104 -87 -207 -172q-54 -44 -107 -88q54 87 79 137q80 154 80 224q-58 41 -101 102q-50 72 -50 136q0 109 75.5 184.5t184.5 75.5t184.5 -75.5t75.5 -184.5z" />
<glyph unicode="&#x201c;" horiz-adv-x="1238" d="M1166 693q-54 43 -106 87q-104 85 -206 172q-126 106 -139 116q-38 35 -57.5 98t-19.5 126q0 109 75.5 184.5t184.5 75.5t184.5 -75.5t75.5 -184.5q0 -61 -48 -130t-103 -108q0 -72 78 -224q26 -50 81 -137zM580 693q-54 43 -106 87q-104 85 -206 172q-126 106 -139 116 q-38 35 -57.5 98t-19.5 126q0 109 75.5 184.5t184.5 75.5t184.5 -75.5t75.5 -184.5q0 -61 -48 -130t-103 -108q0 -72 78 -224q26 -50 81 -137z" />
<glyph unicode="&#x201d;" horiz-adv-x="1238" d="M591 1292q0 -60 -20 -124.5t-57 -99.5q-9 -9 -137 -115q-104 -87 -207 -172q-54 -44 -107 -88q54 87 79 137q80 154 80 224q-58 41 -101 102q-50 72 -50 136q0 109 75.5 184.5t184.5 75.5t184.5 -75.5t75.5 -184.5zM1177 1292q0 -60 -20 -124.5t-57 -99.5 q-9 -9 -137 -115q-104 -87 -207 -172q-54 -44 -107 -88q54 87 79 137q80 154 80 224q-58 41 -101 102q-50 72 -50 136q0 109 75.5 184.5t184.5 75.5t184.5 -75.5t75.5 -184.5z" />
<glyph unicode="&#x202f;" horiz-adv-x="316" />
<glyph unicode="&#x205f;" horiz-adv-x="395" />
<glyph unicode="&#x25fc;" horiz-adv-x="1575" d="M0 1575h1575v-1575h-1575v1575z" />
</font>
</defs>
</svg>
